<svg id="Capa_1" enable-background="new 0 0 507.875 507.875" height="512" viewBox="0 0 507.875 507.875" width="512" xmlns="http://www.w3.org/2000/svg"><g><path d="m507.875 91.404v231.316l-25.212 7.686h-438.079l-44.584-7.685v-231.317c0-16.974 13.765-30.749 30.749-30.749h446.377c16.984 0 30.749 13.776 30.749 30.749z" fill="#8ac9fe"/><path d="m61.498 60.655c-16.984 0-30.749 13.776-30.749 30.749v231.316l-6.926 5.926h-17.446l-6.377-5.925v-231.317c0-16.974 13.765-30.749 30.749-30.749z" fill="#60b7ff"/><path d="m204.486 338.092h98.91v137.347h-98.91z" fill="#e8edf2"/><path d="m204.482 338.095h30.749v137.347h-30.749z" fill="#d9e7ec"/><path d="m387.698 465.767v13.2c0 9.94-8.06 18-18 18h-231.52c-9.94 0-18-8.06-18-18v-13.2c0-9.94 8.06-18 18-18h231.52c9.939 0 18 8.06 18 18z" fill="#f5f8f9"/><path d="m507.875 322.721v35.874c0 16.984-13.765 30.749-30.749 30.749h-446.377c-16.984 0-30.749-13.765-30.749-30.749v-35.874z" fill="#f5f8f9"/><path d="m168.377 496.967h-30.2c-9.94 0-18-8.06-18-18v-13.2c0-9.94 8.06-18 18-18h30.2c-10.19 0-18.45 8.26-18.45 18.45v12.3c0 10.19 8.261 18.45 18.45 18.45z" fill="#e8edf2"/><path d="m61.498 389.344h-30.749c-16.984 0-30.749-13.765-30.749-30.749v-35.874h30.749v35.874c0 16.984 13.766 30.749 30.749 30.749z" fill="#e8edf2"/><path d="m420.496 252.802v-221.395c0-11.326-9.174-20.499-20.5-20.499h-284.943c-11.326 0-20.499 9.174-20.499 20.499v221.395z" fill="#f5f8f9"/><path d="m145.803 10.908c-11.326 0-20.499 9.173-20.499 20.499v221.395h-30.75v-221.395c0-11.326 9.173-20.499 20.499-20.499z" fill="#e8edf2"/><g fill="#ac80dd"><path d="m189.438 197.29c-.021 0-.043 0-.065 0-4.143-.036-7.471-3.423-7.436-7.564.053-6.117.107-12.989.158-20.124h-39.365c-2.653 0-5.109-1.402-6.458-3.688-1.35-2.284-1.391-5.112-.109-7.436 5.264-9.54 31.787-57.458 37.093-63.968 5.895-7.234 12.166-6.271 14.59-5.519 5.132 1.59 8.782 6.639 9.301 12.864.28 3.371.189 29.647.049 52.745h4.446c4.143 0 7.5 3.357 7.5 7.5s-3.357 7.5-7.5 7.5h-4.546c-.071 10.039-.138 17.842-.158 20.253-.038 4.122-3.388 7.437-7.5 7.437zm-33.973-42.688h26.729c.116-19.345.183-38.085.106-46.754-5.469 8.77-17.191 29.445-26.835 46.754z"/><path d="m257.525 201.626c-19.095 0-34.629-15.534-34.629-34.628v-43.386c0-19.094 15.534-34.628 34.629-34.628 19.094 0 34.628 15.534 34.628 34.628v43.386c0 19.094-15.534 34.628-34.628 34.628zm0-97.642c-10.823 0-19.629 8.805-19.629 19.628v43.386c0 10.823 8.806 19.628 19.629 19.628s19.628-8.805 19.628-19.628v-43.386c0-10.823-8.804-19.628-19.628-19.628z"/><path d="m360.116 197.29c-.021 0-.043 0-.065 0-4.143-.036-7.471-3.423-7.436-7.564.053-6.117.107-12.989.158-20.124h-39.364c-2.653 0-5.109-1.402-6.458-3.687-1.35-2.285-1.391-5.113-.109-7.437 5.264-9.54 31.786-57.458 37.092-63.968 5.898-7.236 12.17-6.27 14.591-5.519 5.131 1.59 8.781 6.64 9.3 12.864.28 3.371.189 29.647.049 52.745h4.447c4.143 0 7.5 3.357 7.5 7.5s-3.357 7.5-7.5 7.5h-4.547c-.071 10.039-.138 17.842-.158 20.253-.037 4.122-3.387 7.437-7.5 7.437zm-33.971-42.688h26.728c.116-19.345.183-38.085.106-46.754-5.468 8.768-17.189 29.443-26.834 46.754z"/></g><path d="m442.021 261.199h-368.992c-4.143 0-7.5-3.357-7.5-7.5s3.357-7.5 7.5-7.5h368.991c4.143 0 7.5 3.357 7.5 7.5s-3.357 7.5-7.499 7.5z" fill="#ade7ff"/></g></svg>