<svg height="496pt" viewBox="0 -132 496 496" width="496pt" xmlns="http://www.w3.org/2000/svg"><path d="m439.992188 88.046875c-4.425782 0-8-3.574219-8-8v-16c0-4.421875 3.574218-8 8-8 4.421874 0 8 3.578125 8 8v16c0 4.425781-3.578126 8-8 8zm0 0" fill="#da4453"/><path d="m288 72.023438h-240c-26.558594 0-48 21.441406-48 48v64c0-35.359376 28.640625-64 64-64s64 28.640624 64 64v8h256v-8c0-35.359376 28.640625-64 64-64v-48zm0 0" fill="#ed5565"/><path d="m64 72.023438h-7.984375v48.015624c0 .183594.097656.335938.105469.511719 2.582031-.3125 5.207031-.527343 7.878906-.527343 2.6875 0 5.3125.214843 7.902344.535156.019531-.175782.113281-.335938.113281-.519532v-48.015624zm0 0" fill="#da4453"/><path d="m128 184.023438v8h-24.800781c.554687-2.558594.800781-5.28125.800781-8 0-22.082032-17.921875-40-40-40s-40 17.917968-40 40c0 2.71875.238281 5.441406.800781 8h-24.800781v-8c0-35.359376 28.640625-64 64-64s64 28.640624 64 64zm0 0" fill="#ccd1d9"/><path d="m64 64.023438c0-30.960938 25.039062-56 56-56h48.160156v64h-104.160156zm0 0" fill="#5d9cec"/><path d="m248 8.023438 40 64h-119.839844v-64zm0 0" fill="#5d9cec"/><path d="m480 88.023438v32h-32v-16c0-8.800782 7.199219-16 16-16zm0 0" fill="#aab2bd"/><path d="m496 120.023438v24h-48c-22.078125 0-40 17.917968-40 40 0 2.71875.238281 5.441406.800781 8h-24.800781v-8c0-35.359376 28.640625-64 64-64zm0 0" fill="#ccd1d9"/><path d="m288.023438 80.039062c-2.664063 0-5.269532-1.328124-6.792969-3.761718l-40.015625-64.03125c-2.34375-3.75-1.199219-8.6875 2.539062-11.023438 3.757813-2.351562 8.6875-1.207031 11.023438 2.535156l42.71875 68.257813c2.34375 3.75-1.503906 4.464844-5.238282 6.800781-1.320312.832032-2.785156 1.222656-4.234374 1.222656zm0 0" fill="#ed5565"/><path d="m64.015625 72.023438c-4.421875 0-8-3.574219-8-8 0-35.28125 28.703125-63.9843755 63.984375-63.9843755 4.425781 0 8 3.5781255 8 7.9999995 0 4.425782-3.574219 8-8 8-26.464844 0-47.984375 21.519532-47.984375 47.984376 0 4.425781-3.574219 8-8 8zm0 0" fill="#ed5565"/><path d="m248 16.039062h-128c-4.425781 0-8-3.574218-8-8 0-4.421874 3.574219-7.9999995 8-7.9999995h128c4.425781 0 8 3.5781255 8 7.9999995 0 4.425782-3.574219 8-8 8zm0 0" fill="#ed5565"/><path d="m168.183594 80.054688c-4.421875 0-8-3.574219-8-8v-64.015626c0-4.421874 3.578125-7.9999995 8-7.9999995 4.425781 0 8 3.5781255 8 7.9999995v64.015626c0 4.425781-3.574219 8-8 8zm0 0" fill="#ed5565"/><g fill="#da4453"><path d="m200 112.039062h-16c-4.425781 0-8-3.574218-8-8 0-4.421874 3.574219-8 8-8h16c4.425781 0 8 3.578126 8 8 0 4.425782-3.574219 8-8 8zm0 0"/><path d="m320 128.039062c-.832031 0-1.6875-.136718-2.527344-.414062-4.183594-1.402344-6.457031-5.929688-5.058594-10.121094l8-23.984375c1.402344-4.183593 5.882813-6.464843 10.121094-5.054687 4.183594 1.398437 6.457032 5.925781 5.058594 10.117187l-8 23.984375c-1.121094 3.351563-4.242188 5.472656-7.59375 5.472656zm0 0"/><path d="m344 128.039062c-.832031 0-1.6875-.136718-2.527344-.414062-4.183594-1.402344-6.457031-5.929688-5.058594-10.121094l8-23.984375c1.394532-4.183593 5.898438-6.464843 10.121094-5.054687 4.183594 1.398437 6.457032 5.925781 5.058594 10.117187l-8 23.984375c-1.121094 3.351563-4.242188 5.472656-7.59375 5.472656zm0 0"/><path d="m368 128.039062c-.832031 0-1.6875-.136718-2.527344-.414062-4.183594-1.402344-6.457031-5.929688-5.058594-10.121094l8-23.984375c1.402344-4.183593 5.882813-6.464843 10.121094-5.054687 4.183594 1.398437 6.457032 5.925781 5.058594 10.117187l-8 23.984375c-1.121094 3.351563-4.242188 5.472656-7.59375 5.472656zm0 0"/></g><path d="m56.015625 64.023438h16v8h-16zm0 0" fill="#ed5565"/><path d="m448 136.023438c-26.503906 0-48 21.503906-48 48 0 3.265624.289062 6.527343.953125 9.59375 4.414063 21.894531 23.816406 38.40625 47.046875 38.40625 26.503906 0 48-21.503907 48-48 0-26.496094-21.496094-48-48-48zm0 0" fill="#656d78"/><path d="m64 136.023438c-26.503906 0-48 21.503906-48 48 0 3.265624.289062 6.527343.953125 9.59375 4.414063 21.902343 23.816406 38.40625 47.046875 38.40625s42.632812-16.503907 47.046875-38.40625c.664063-3.066407.953125-6.328126.953125-9.59375 0-26.503907-21.496094-48-48-48zm0 0" fill="#656d78"/><path d="m64 164.023438c11.105469 0 20 9 20 20s-8.894531 20-20 20c-11 0-20-9-20-20s9-20 20-20zm0 0" fill="#ccd1d9"/><path d="m448 164.023438c11.105469 0 20 8.894531 20 20 0 11-8.894531 20-20 20-11 0-20-9-20-20 0-11.105469 9-20 20-20zm0 0" fill="#ccd1d9"/></svg>