<svg height="495pt" viewBox="0 -83 495.848 495" width="495pt" xmlns="http://www.w3.org/2000/svg"><path d="m142.238281 184.472656c-6.160156 26.878906-27.359375 48.078125-54.230469 54.238282-5.128906 1.121093-10.488281 1.761718-16 1.761718-5.519531 0-10.878906-.640625-16-1.761718-26.878906-6.167969-48.078124-27.359376-54.238281-54.238282-1.121093-5.121094-1.7617185-10.480468-1.7617185-16v88.039063c0 39.769531 32.2304685 72 71.9999995 72 39.832032 0 72-32.230469 72-72v-88.039063c0 5.519532-.640624 10.878906-1.769531 16zm0 0" fill="#434a54"/><path d="m72.007812 264.464844c-39.769531 0-71.9999995-32.242188-71.9999995-72v8.007812c0 39.757813 32.2304685 72 71.9999995 72 39.761719 0 72-32.242187 72-72v-8.007812c0 39.757812-32.246093 72-72 72zm0 0" fill="#353b44"/><path d="m72.007812 296.457031c-39.769531 0-71.9999995-32.242187-71.9999995-72v8.007813c0 39.757812 32.2304685 72 71.9999995 72 39.761719 0 72-32.242188 72-72v-8.007813c0 39.757813-32.246093 72-72 72zm0 0" fill="#353b44"/><path d="m359.929688 184.472656c8.796874 0 16-7.121094 16-16 0-8.800781-7.203126-16-16-16h-6.320313c6.167969-26.878906 27.359375-48.082031 54.238281-54.242187v6.320312c0 8.882813 7.191406 16 16 16 8.871094 0 16-7.117187 16-16v-6.320312c26.871094 6.167969 48.082032 27.363281 54.230469 54.242187h-6.230469c-8.878906 0-16 7.199219-16 16 0 8.878906 7.121094 16 16 16h6.230469c-6.15625 26.878906-27.359375 48.078125-54.230469 54.238282v-6.238282c0-8.878906-7.128906-16-16-16-8.808594 0-16 7.121094-16 16v6.238282c-26.878906-6.167969-48.078125-27.359376-54.238281-54.238282zm79.917968 0v-31.921875h-32v31.921875zm0 0" fill="#ac92ec"/><path d="m359.929688 152.472656c8.796874 0 16 7.199219 16 16 0 8.878906-7.203126 16-16 16h-6.320313c-1.121094-5.121094-1.761719-10.480468-1.761719-16 0-5.519531.640625-10.878906 1.761719-16zm0 0" fill="#e6e9ed"/><path d="m407.847656 98.230469c5.121094-1.117188 10.480469-1.757813 16-1.757813 5.511719 0 10.871094.640625 16 1.757813v6.320312c0 8.882813-7.128906 16-16 16-8.808594 0-16-7.117187-16-16zm0 0" fill="#e6e9ed"/><path d="m407.847656 152.550781h32v31.921875h-32zm0 0" fill="#e6e9ed"/><path d="m495.847656 168.472656c0 5.519532-.640625 10.878906-1.769531 16h-6.230469c-8.878906 0-16-7.121094-16-16 0-8.800781 7.121094-16 16-16h6.230469c1.128906 5.121094 1.769531 10.472656 1.769531 16zm0 0" fill="#e6e9ed"/><path d="m423.847656 240.472656c-5.519531 0-10.878906-.640625-16-1.761718v-6.238282c0-8.878906 7.191406-16 16-16 8.871094 0 16 7.121094 16 16v6.238282c-5.121094 1.121093-10.480468 1.761718-16 1.761718zm0 0" fill="#e6e9ed"/><path d="m351.847656 168.519531c0 39.769531 32.230469 72 72 72 39.832032 0 72-32.230469 72-72v32c0 39.769531-32.167968 72-72 72-39.769531 0-72-32.230469-72-72zm0 0" fill="#967adc"/><path d="m351.847656 200.519531c0 39.769531 32.230469 72 72 72 39.832032 0 72-32.230469 72-72v32c0 39.769531-32.167968 63.992188-72 63.992188-39.769531 0-72-24.222657-72-63.992188zm0 0" fill="#967adc"/><path d="m351.847656 232.519531c0 39.769531 32.230469 63.992188 72 63.992188 39.832032 0 72-24.222657 72-63.992188v23.992188c0 39.769531-32.167968 72-72 72-39.769531 0-72-32.230469-72-72zm0 0" fill="#967adc"/><path d="m318.089844 88.425781c-6.160156 26.871094-27.363282 48.078125-54.234375 54.230469-5.128907 1.128906-10.488281 1.769531-16 1.769531-5.519531 0-10.878907-.640625-16-1.769531-26.878907-6.160156-48.078125-27.359375-54.238281-54.230469-1.121094-5.128906-1.761719-10.488281-1.761719-16v183.925781c0 39.761719 32.234375 72 72 72 39.761719 0 72-32.238281 72-72v-183.925781c-.007813 5.519531-.648438 10.871094-1.765625 16zm0 0" fill="#da4453"/><path d="m231.847656 136.34375c0-8.808594 7.191406-16 16-16 8.871094 0 16 7.191406 16 16v6.3125c-5.128906 1.128906-10.488281 1.769531-16 1.769531-5.519531 0-10.878906-.640625-16-1.769531zm0 0" fill="#e6e9ed"/><path d="m223.847656 72.425781c0 13.277344 10.71875 24 24 24 13.191406 0 24-10.722656 24-24 0-13.28125-10.808594-24-24-24-13.28125 0-24 10.71875-24 24zm24 47.917969c-8.808594 0-16 7.191406-16 16v6.3125c-26.878906-6.160156-48.078125-27.359375-54.238281-54.230469h6.320313c8.796874 0 16-7.203125 16-16 0-8.882812-7.203126-16-16-16h-6.320313c6.167969-26.882812 27.359375-48.082031 54.238281-54.242187v6.242187c0 8.871094 7.121094 16 16 16 8.800782 0 16-7.128906 16-16v-6.242187c26.871094 6.167968 48.082032 27.359375 54.230469 54.242187h-6.308594c-8.808593 0-16 7.117188-16 16 0 8.796875 7.191407 16 16 16h6.308594c-6.15625 26.871094-27.359375 48.078125-54.230469 54.230469v-6.3125c0-8.800781-7.121094-16-16-16zm0 0" fill="#ed5565"/><g fill="#e6e9ed"><path d="m175.847656 72.425781c0-5.523437.640625-10.882812 1.761719-16h6.320313c8.796874 0 16 7.117188 16 16 0 8.796875-7.203126 16-16 16h-6.320313c-1.121094-5.128906-1.761719-10.480469-1.761719-16zm0 0"/><path d="m295.769531 72.425781c0-8.882812 7.191407-16 16-16h6.308594c1.128906 5.117188 1.769531 10.476563 1.769531 16 0 5.511719-.640625 10.871094-1.769531 16h-6.308594c-8.800781 0-16-7.203125-16-16zm0 0"/><path d="m231.847656 2.183594c5.121094-1.121094 10.480469-1.757813 16-1.757813 5.511719 0 10.871094.636719 16 1.757813v6.242187c0 8.871094-7.199218 16-16 16-8.878906 0-16-7.128906-16-16zm0 0"/><path d="m247.847656 48.425781c13.191406 0 24 10.71875 24 24 0 13.277344-10.808594 24-24 24-13.28125 0-24-10.722656-24-24 0-13.28125 10.71875-24 24-24zm0 0"/><path d="m8.089844 152.519531c8.796875 0 16 7.128907 16 16 0 8.808594-7.203125 16-16 16h-6.320313c-1.128906-5.121093-1.769531-10.480469-1.769531-16 0-5.511719.640625-10.871093 1.769531-16zm0 0"/><path d="m72.007812 96.519531c5.511719 0 10.871094.640625 16 1.769531v6.230469c0 8.878907-7.199218 16-16 16-8.871093 0-16-7.121093-16-16v-6.238281c5.121094-1.121094 10.480469-1.761719 16-1.761719zm0 0"/><path d="m142.238281 152.519531c1.128907 5.128907 1.769531 10.488281 1.769531 16 0 5.519531-.640624 10.878907-1.769531 16h-6.308593c-8.800782 0-16-7.191406-16-16 0-8.871093 7.199218-16 16-16zm0 0"/><path d="m47.851562 168.441406 24-24.003906 24 24.003906-24 24zm0 0"/><path d="m72.007812 216.441406c8.800782 0 16 7.199219 16 16v6.320313c-5.128906 1.117187-10.488281 1.757812-16 1.757812-5.511718 0-10.871093-.640625-16-1.757812v-6.320313c0-8.800781 7.121094-16 16-16zm0 0"/></g><path d="m71.847656 144.441406-24 24 24 24 24-24zm64.082032 40.078125h6.308593c-6.160156 26.878907-27.359375 48.082031-54.230469 54.242188v-6.320313c0-8.800781-7.199218-16-16-16-8.871093 0-16 7.199219-16 16v6.320313c-26.878906-6.160157-48.078124-27.363281-54.238281-54.242188h6.320313c8.796875 0 16-7.191406 16-16 0-8.871093-7.203125-16-16-16h-6.320313c6.160157-26.878906 27.359375-48.078125 54.238281-54.238281v6.230469c0 8.878906 7.128907 16 16 16 8.800782 0 16-7.121094 16-16v-6.230469c26.871094 6.160156 48.082032 27.359375 54.230469 54.230469h-6.308593c-8.800782 0-16 7.128906-16 16 0 8.808593 7.199218 16.007812 16 16.007812zm0 0" fill="#656d78"/><path d="m247.847656 168.414062c-39.769531 0-72-32.238281-72-72v8.011719c0 39.757813 32.230469 72 72 72 39.761719 0 72-32.242187 72-72v-8.011719c0 39.761719-32.238281 72-72 72zm0 0" fill="#d3374e"/><path d="m247.847656 200.40625c-39.769531 0-72-32.238281-72-72v8.007812c0 39.761719 32.230469 72 72 72 39.761719 0 72-32.238281 72-72v-8.007812c0 39.761719-32.238281 72-72 72zm0 0" fill="#d3374e"/><path d="m247.847656 232.398438c-39.769531 0-72-32.238282-72-72v8.007812c0 39.761719 32.230469 72 72 72 39.761719 0 72-32.238281 72-72v-8.007812c0 39.761718-32.238281 72-72 72zm0 0" fill="#d3374e"/><path d="m423.847656 264.464844c-39.769531 0-72-32.242188-72-72v8.007812c0 39.757813 32.230469 72 72 72 39.761719 0 72-32.242187 72-72v-8.007812c0 39.757812-32.238281 72-72 72zm0 0" fill="#856ecc"/><path d="m423.847656 296.457031c-39.769531 0-72-32.242187-72-72v8.007813c0 39.757812 32.230469 72 72 72 39.761719 0 72-32.242188 72-72v-8.007813c0 39.757813-32.238281 72-72 72zm0 0" fill="#856ecc"/><path d="m247.847656 264.390625c-39.769531 0-72-32.238281-72-72v8.007813c0 39.761718 32.230469 72 72 72 39.761719 0 72-32.238282 72-72v-8.007813c0 39.761719-32.238281 72-72 72zm0 0" fill="#d3374e"/><path d="m247.847656 296.382812c-39.769531 0-72-32.238281-72-72v8.007813c0 39.761719 32.230469 72 72 72 39.761719 0 72-32.238281 72-72v-8.007813c0 39.761719-32.238281 72-72 72zm0 0" fill="#d3374e"/></svg>