<?xml version="1.0" encoding="iso-8859-1"?>
<!-- Generator: Adobe Illustrator 19.0.0, SVG Export Plug-In . SVG Version: 6.00 Build 0)  -->
<svg version="1.1" id="Capa_1" xmlns="http://www.w3.org/2000/svg" xmlns:xlink="http://www.w3.org/1999/xlink" x="0px" y="0px"
	 viewBox="0 0 512.004 512.004" style="enable-background:new 0 0 512.004 512.004;" xml:space="preserve">
<g>
	<path style="fill:#B0D3F0;" d="M512.004,61.795l-0.002,414.19c0.094,9.459-3.573,18.567-10.195,25.322
		s-15.656,10.602-25.115,10.695H35.312c-9.459-0.093-18.493-3.94-25.115-10.695s-10.289-15.863-10.195-25.322L0,61.795H512.004z"/>
	<path style="fill:#7F5B53;" d="M372.438,301.376v0.088c-33.805,62.361-110.747,87.006-174.492,55.892s-91.65-106.936-63.282-171.95
		s102.93-96.126,169.095-70.556c-2.382,5.55-3.614,11.527-3.619,17.567c-0.013,16.297,8.954,31.275,23.326,38.959
		c14.371,7.684,31.807,6.825,45.353-2.236c9.907,16.025,16.231,34.003,18.538,52.701c-17.113,3.928-30.271,17.625-33.508,34.882
		C350.612,273.979,357.911,291.513,372.438,301.376z"/>
	<path style="fill:#4482C3;" d="M512.002,35.312v35.31h-512v-35.31c0-19.501,15.809-35.31,35.31-35.31h441.379
		C496.193,0.002,512.002,15.811,512.002,35.312z"/>
	<path style="fill:#F0C419;" d="M52.967,44.14H44.14c-4.875,0-8.828-3.952-8.828-8.828s3.952-8.828,8.828-8.828h8.828
		c4.875,0,8.828,3.952,8.828,8.828S57.843,44.14,52.967,44.14z"/>
	<path style="fill:#24AE5F;" d="M97.105,44.14h-8.828c-4.875,0-8.828-3.952-8.828-8.828s3.952-8.828,8.828-8.828h8.828
		c4.875,0,8.828,3.952,8.828,8.828S101.981,44.14,97.105,44.14z"/>
	<path style="fill:#FF5364;" d="M141.243,44.14h-8.828c-4.875,0-8.828-3.952-8.828-8.828s3.952-8.828,8.828-8.828h8.828
		c4.875,0,8.828,3.952,8.828,8.828S146.118,44.14,141.243,44.14z"/>
	<path style="fill:#FFFFFF;" d="M467.864,44.14h-291.31c-4.875,0-8.828-3.952-8.828-8.828s3.952-8.828,8.828-8.828h291.31
		c4.875,0,8.828,3.952,8.828,8.828S472.739,44.14,467.864,44.14z"/>
	<g>
		<circle style="fill:#CB8252;" cx="247.174" cy="176.553" r="26.483"/>
		<circle style="fill:#CB8252;" cx="176.553" cy="229.519" r="17.655"/>
		<circle style="fill:#CB8252;" cx="300.14" cy="308.967" r="17.655"/>
		<path style="fill:#CB8252;" d="M220.691,317.795c-0.592-0.019-1.182-0.078-1.766-0.177c-0.553-0.096-1.089-0.275-1.589-0.53
			c-0.565-0.195-1.102-0.462-1.598-0.794c-0.458-0.328-0.897-0.682-1.315-1.059c-0.798-0.844-1.427-1.833-1.854-2.913
			c-0.452-1.061-0.692-2.201-0.706-3.354c0.019-0.592,0.078-1.182,0.177-1.766c0.096-0.553,0.275-1.089,0.53-1.589
			c0.193-0.563,0.46-1.097,0.794-1.589l1.059-1.324l1.315-1.059c0.496-0.333,1.033-0.6,1.598-0.794
			c0.5-0.255,1.036-0.434,1.589-0.53c2.905-0.536,5.891,0.35,8.033,2.383c0.38,0.419,0.733,0.862,1.059,1.324
			c0.331,0.494,0.598,1.028,0.794,1.589c0.257,0.499,0.432,1.035,0.521,1.589c0.105,0.583,0.167,1.173,0.185,1.766
			c0.024,2.348-0.899,4.608-2.559,6.268C225.299,316.896,223.04,317.819,220.691,317.795z"/>
		<path style="fill:#CB8252;" d="M317.795,247.174c-0.592-0.015-1.182-0.074-1.766-0.177c-0.553-0.096-1.089-0.275-1.589-0.53
			c-0.565-0.195-1.102-0.462-1.598-0.794c-0.458-0.328-0.897-0.682-1.315-1.059c-3.414-3.481-3.414-9.054,0-12.535
			c2.558-2.468,6.331-3.195,9.622-1.854c1.068,0.45,2.053,1.077,2.913,1.854c0.798,0.844,1.427,1.833,1.854,2.913
			c0.941,2.137,0.941,4.572,0,6.709c-0.405,1.091-1.037,2.084-1.854,2.913C322.37,246.226,320.132,247.14,317.795,247.174z"/>
		<path style="fill:#CB8252;" d="M256.002,256.002c-1.154-0.014-2.293-0.254-3.354-0.706c-1.08-0.427-2.069-1.056-2.913-1.854
			c-3.414-3.481-3.414-9.054,0-12.535c0.844-0.798,1.833-1.427,2.913-1.854c2.149-0.883,4.56-0.883,6.709,0
			c2.728,1.119,4.718,3.526,5.303,6.416s-0.311,5.881-2.39,7.973c-0.86,0.777-1.845,1.404-2.913,1.854
			C258.295,255.748,257.155,255.988,256.002,256.002z"/>
	</g>
	<path style="fill:#FF5364;" d="M185.381,406.071h141.241c19.501,0,35.31,15.809,35.31,35.31l0,0c0,19.501-15.809,35.31-35.31,35.31
		H185.381c-19.501,0-35.31-15.809-35.31-35.31l0,0C150.071,421.88,165.88,406.071,185.381,406.071z"/>
	<path style="fill:#2FA8CC;" d="M463.318,480.973c-2.341-0.001-4.586-0.931-6.241-2.586l-31.214-31.206l-12.482,12.482
		c-2.164,2.16-5.291,3.046-8.266,2.344c-2.975-0.703-5.375-2.895-6.343-5.795l-18.723-56.179c-1.056-3.17-0.231-6.665,2.131-9.029
		c2.362-2.364,5.856-3.191,9.027-2.138l56.188,18.723c2.902,0.969,5.095,3.372,5.797,6.35c0.701,2.978-0.189,6.107-2.354,8.269
		l-12.491,12.491l31.214,31.206c2.524,2.525,3.279,6.321,1.913,9.619C470.105,478.821,466.887,480.972,463.318,480.973z"/>
	<path style="fill:#FFFFFF;" d="M317.795,450.209H194.209c-4.875,0-8.828-3.952-8.828-8.828s3.952-8.828,8.828-8.828h123.586
		c4.875,0,8.828,3.952,8.828,8.828S322.67,450.209,317.795,450.209z"/>
</g>
<g>
</g>
<g>
</g>
<g>
</g>
<g>
</g>
<g>
</g>
<g>
</g>
<g>
</g>
<g>
</g>
<g>
</g>
<g>
</g>
<g>
</g>
<g>
</g>
<g>
</g>
<g>
</g>
<g>
</g>
</svg>
