<svg height="503pt" viewBox="-51 0 503 503.953" width="503pt" xmlns="http://www.w3.org/2000/svg"><path d="m192.890625 216.777344c-2.039063 0-4.09375-.785156-5.652344-2.34375l-5.664062-5.671875c-3.128907-3.121094-3.121094-8.183594.007812-11.304688 3.125-3.136719 8.175781-3.136719 11.300781-.007812l5.664063 5.671875c3.128906 3.128906 3.136719 8.183594 0 11.3125-1.566406 1.558594-3.613281 2.34375-5.65625 2.34375zm0 0" fill="#434a54"/><path d="m382.332031 27.320312c-2.046875-.007812-4.09375-.785156-5.65625-2.351562l-5.65625-5.648438c-3.128906-3.128906-3.117187-8.191406 0-11.3125 3.128907-3.136718 8.183594-3.136718 11.3125 0l5.65625 5.648438c3.128907 3.136719 3.128907 8.183594 0 11.3125-1.558593 1.566406-3.609375 2.351562-5.65625 2.351562zm0 0" fill="#aab2bd"/><path d="m362.957031 83.871094-107.921875 107.921875-16.878906-17.039063-5.679688-5.609375 107.921876-107.902343zm0 0" fill="#965353"/><path d="m232.484375 177.160156c-2.046875 0-4.097656-.78125-5.65625-2.34375-3.128906-3.128906-3.128906-8.183594 0-11.3125l161.160156-161.152344c3.128907-3.132812 8.183594-3.132812 11.3125-.007812 3.128907 3.128906 3.128907 8.183594 0 11.3125l-161.152343 161.160156c-1.566407 1.570313-3.617188 2.34375-5.664063 2.34375zm0 0" fill="#ccd1d9"/><path d="m192.757812 284.695312c-.699218 0-1.402343-.09375-2.113281-.285156l-17.71875-4.824218c-4.265625-1.160157-6.785156-5.554688-5.625-9.824219 1.167969-4.257813 5.582031-6.769531 9.824219-5.609375l17.726562 4.824218c4.257813 1.152344 6.785157 5.550782 5.625 9.824219-.96875 3.542969-4.207031 5.894531-7.71875 5.894531zm0 0" fill="#434a54"/><path d="m184.699219 315.289062c-2.054688.007813-4.109375-.792968-5.664063-2.359374-3.125-3.128907-3.101562-8.191407.023438-11.304688l44.402344-44.222656c3.128906-3.128906 8.183593-3.113282 11.304687.03125 3.117187 3.136718 3.109375 8.191406-.023437 11.3125l-44.402344 44.214844c-1.550782 1.550781-3.597656 2.328124-5.640625 2.328124zm0 0" fill="#656d78"/><path d="m280.949219 256.433594c24.960937 24.96875 41.4375 49.046875 36.800781 53.765625-4.714844 4.640625-28.800781-11.839844-53.753906-36.796875-24.816406-24.800782-41.136719-48.640625-36.886719-53.601563 0-.078125 0-.078125.078125-.167969.089844-.070312.089844-.070312.167969-.070312 4.953125-4.242188 28.792969 12.070312 53.59375 36.871094zm0 0" fill="#aab2bd"/><path d="m317.75 310.191406-22.632812 22.5625c-4.730469 4.71875-28.730469-11.761718-53.769532-36.800781-8.167968-8.167969-15.4375-16.320313-21.359375-23.601563-12.167969-15.039062-18.558593-26.957031-15.359375-30.085937l22.480469-22.480469c-4.242187 4.960938 12.078125 28.808594 36.886719 53.601563 24.953125 24.964843 49.039062 41.445312 53.753906 36.804687zm0 0" fill="#ccd1d9"/><path d="m177.628906 269.199219 49.214844 97.992187-30.246094 30.242188-49.144531-97.984375 22.71875-22.710938zm0 0" fill="#965353"/><path d="m221.109375 350.296875-32.066406 32.0625 7.554687 15.074219 35.816406-35.832032c3.125-3.128906 3.125-8.183593.007813-11.304687-3.128906-3.136719-8.195313-3.136719-11.3125 0zm0 0" fill="#844747"/><path d="m255.035156 191.792969v.089843l-19.679687 19.679688c-.078125 0-.078125 0-.167969.078125-.078125.082031-.078125.082031-.070312.160156l-22.488282 22.488281-32 31.910157-4.808594 4.882812-22.71875 22.71875-28.242187 28.160157-33.910156 33.921874-16.960938-16.953124c-6.238281-6.242188-6.238281-16.417969 0-22.640626l113.191407-113.199218 39.519531-39.511719 5.761719 5.589844 5.679687 5.601562zm0 0" fill="#656d78"/><path d="m124.875 321.945312 16.960938 39.609376-22.558594 22.621093-40.5625 97.136719-22.636719 22.640625-55.601563-57.519531 84.800782-84.886719 5.679687-5.683594zm0 0" fill="#965353"/></svg>