<svg height="480pt" viewBox="-64 0 480 480.072" width="480pt" xmlns="http://www.w3.org/2000/svg"><path d="m248.035156 416.070312-16-16 32-32-16-16h40c35.359375 0 64 28.640626 64 64v56c0 4.410157-3.589844 8-8 8h-144zm36 23.769532c6.640625 0 12-5.359375 12-12v-20h-24v20c0 6.640625 5.359375 12 12 12zm0 0" fill="#434a54"/><path d="m288.035156 352.070312h-24.015625c35.359375 0 63.984375 28.640626 63.984375 64v56c0 4.410157-3.59375 8-8 8h24.03125c4.410156 0 8-3.589843 8-8v-56c0-35.359374-28.640625-64-64-64zm0 0" fill="#353b44"/><path d="m151.644531 416.070312 24.878907 64h-24l-48-64 16-16-32-32 32-32 12.480468 32zm0 0" fill="#656d78"/><path d="m104.035156 416.070312 48 64h-144c-4.40625 0-7.9999998-3.589843-7.9999998-8v-56c0-35.359374 28.6406248-64 63.9999998-64h40l-16 16 32 32zm0 0" fill="#434a54"/><path d="m248.035156 352.070312 16 16-32 32 16 16-48 64h-24l24.871094-64 18.640625-48 12.488281-32zm0 0" fill="#656d78"/><path d="m219.546875 368.070312-18.640625 48-16.871094-40 16-18.796874zm0 0" fill="#e6e9ed"/><path d="m200.035156 357.273438-16 18.796874h-16l-16-18.796874 24-13.203126zm0 0" fill="#ed5565"/><path d="m152.035156 357.273438 16 18.796874-16.871094 40-18.640624-48zm0 0" fill="#e6e9ed"/><path d="m184.035156 376.070312 16.871094 40-24.871094 64-24.871094-64 16.871094-40zm0 0" fill="#da4453"/><path d="m232.035156 336.070312-12.488281 32-19.511719-10.796874-24-13.203126-24 13.203126-19.511718 10.796874-12.488282-32v-21.832031c16.722656 8.800781 35.753906 13.832031 56 13.832031 20.234375 0 39.28125-5.039062 56-13.832031zm0 0" fill="#f5f7fa"/><path d="m352.035156 144.089844c0 9.277344-21.511718 17.589844-56 23.359375-31.4375 5.359375-73.605468 8.640625-120 8.640625-46.40625 0-88.558594-3.28125-120-8.640625-34.488281-5.769531-55.9999998-14.082031-55.9999998-23.359375 0-9.769532 23.8398438-18.488282 61.3593748-24.328125l-5.359375 24.328125h240l-5.359375-24.328125c37.519531 5.839843 61.359375 14.558593 61.359375 24.328125zm0 0" fill="#656d78"/><path d="m272.035156 216c0-13.273438 10.722656-24 24-24v16.089844c0 45.988281-25.917968 85.988281-64 106.15625-16.71875 8.800781-35.765625 13.832031-56 13.832031-20.246094 0-39.277344-5.039063-56-13.832031-38.078125-20.167969-64-60.167969-64-106.15625v-16.089844c13.28125 0 24 10.726562 24 24 0 39.839844 32.160156 72 72 72l8-8h32l8 8c39.753906 0 72-32.152344 72-72zm0 0" fill="#656d78"/><path d="m296.035156 192c-13.277344 0-24 10.726562-24 24 0 39.839844-32.246094 72-72 72l-8-8h-32l-8 8c-39.839844 0-72-32.160156-72-72 0-13.273438-10.71875-24-24-24v-24.550781c31.441406 5.359375 73.59375 8.640625 120 8.640625 46.394532 0 88.5625-3.28125 120-8.640625zm0 0" fill="#eac6bb"/><path d="m284.429688 169.238281c-3.722657.539063-7.59375 1.035157-11.546876 1.515625-.292968.03125-.558593.070313-.855468.109375v37.226563c0 11.757812-1.71875 23.117187-4.871094 33.863281 3.097656-8.050781 4.878906-16.777344 4.878906-25.953125 0-13.273438 10.722656-24 24-24v-24.550781c-3.71875.621093-7.589844 1.230469-11.605468 1.789062zm0 0" fill="#d3b1a9"/><path d="m272.035156 216c0 9.167969-1.78125 17.894531-4.886718 25.953125-9.199219 31.277344-30.785157 57.277344-59.128907 72.285156-13.359375 7.035157-28.214843 11.609375-43.984375 13.1875.03125 0 .050782 0 .066406.007813 3.933594.382812 7.902344.636718 11.933594.636718 20.234375 0 39.28125-5.039062 56-13.832031 38.082032-20.167969 64-60.167969 64-106.160156v-16.085937c-13.277344.007812-24 10.734374-24 24.007812zm0 0" fill="#434a54"/><path d="m290.597656 119.761719h.078125l5.359375 24.328125h-240l5.359375-24.328125 1.769531-7.671875h225.742188zm0 0" fill="#ed5565"/><path d="m264.035156 0 24.871094 112.089844h-225.742188l24.871094-112.089844c56 0 56 24.089844 88 24.089844s31.921875-24.089844 88-24.089844zm0 0" fill="#656d78"/><path d="m290.675781 119.761719h-.078125l-1.691406-7.671875h-24.015625l1.6875 7.671875h.082031l5.359375 24.328125h24.015625zm0 0" fill="#da4453"/><path d="m264.035156 0c-9.328125 0-16.984375.710938-23.605468 1.824219l24.46875 110.265625h24.015624zm0 0" fill="#434a54"/><path d="m284.035156 464.207031c-4.421875 0-8-3.574219-8-8v-16.167969c0-4.421874 3.578125-8 8-8 4.425782 0 8 3.578126 8 8v16.167969c0 4.417969-3.574218 8-8 8zm0 0" fill="#a0d468"/><path d="m300.035156 407.871094v23.976562c0 8.863282-7.136718 16-16 16-8.863281 0-16-7.136718-16-16v-23.976562zm0 0" fill="#ed5565"/></svg>