<svg height="488pt" viewBox="0 0 488 488.152" width="488pt" xmlns="http://www.w3.org/2000/svg"><path d="m136.15625 360.152344v128h-64.082031c-4.398438 0-8-3.511719-8-8v-55.921875c0-35.4375 28.640625-64.078125 64-64.078125zm0 0" fill="#e6e9ed"/><path d="m136.15625 360.152344h24.078125v128h-24.078125zm0 0" fill="#656d78"/><path d="m320.234375 360.230469h23.921875v127.921875h-23.921875zm0 0" fill="#656d78"/><path d="m352.074219 360.230469c35.363281 0 64 28.5625 64 64v55.921875c0 4.488281-3.597657 8-8 8h-63.917969v-127.921875zm0 0" fill="#e6e9ed"/><path d="m352.074219 360.230469h-7.917969v2.128906c27.542969 7.128906 47.894531 32.03125 47.894531 61.871094v55.921875c0 4.488281-3.597656 8-8 8h24.023438c4.402343 0 8-3.511719 8-8v-55.921875c0-35.4375-28.636719-64-64-64zm0 0" fill="#ccd1d9"/><path d="m344.15625 360.230469h-16.105469c5.570313 0 10.945313.785156 16.105469 2.128906zm0 0" fill="#da4453"/><path d="m184.074219 360.152344 24.160156 16 32-8.160156 32 8.160156 23.839844-15.921875h24.160156v127.921875h-160v-128zm0 0" fill="#e6e9ed"/><path d="m296.074219 322.320312v37.910157l-23.839844 15.921875-32-8.160156-32 8.160156-24.160156-16v-37.832032c16.722656 8.816407 35.761719 13.839844 56 13.839844 20.242187 0 39.28125-5.03125 56-13.839844zm0 0" fill="#f5f7fa"/><path d="m360.074219 175.601562v40.558594c0 46.078125-25.917969 86.078125-64 106.160156-16.71875 8.816407-35.757813 13.839844-56 13.839844-20.238281 0-39.277344-5.03125-56-13.839844-38.078125-20.082031-64-60.082031-64-106.160156v-40.558594c31.441406 5.277344 73.601562 8.558594 120 8.558594 46.402343 0 88.5625-3.28125 120-8.558594zm0 0" fill="#eac6bb"/><path d="m336.050781 178.984375v37.167969c0 46.078125-25.917969 86.078125-64 106.160156-13.367187 7.046875-28.222656 11.625-43.992187 13.199219 3.960937.390625 7.953125.640625 12.015625.640625 20.242187 0 39.28125-5.03125 56-13.839844 38.082031-20.082031 64-60.082031 64-106.160156v-40.558594c-7.421875 1.253906-15.496094 2.382812-24.023438 3.390625zm0 0" fill="#d3b1a9"/><path d="m360.074219 175.601562c-31.4375 5.277344-73.597657 8.558594-120 8.558594-46.398438 0-88.558594-3.28125-120-8.558594-34.476563-5.832031-56-14.160156-56-23.441406 0-9.671875 23.839843-18.390625 61.363281-24.230468l-5.363281 24.230468h240l-5.359375-24.230468c37.601562 5.839843 61.359375 14.558593 61.359375 24.230468 0 9.28125-21.519531 17.609375-56 23.441406zm0 0" fill="#656d78"/><path d="m127.195312 120.160156h225.761719l1.757813 7.769532 5.359375 24.230468h-240l5.363281-24.230468h.078125zm0 0" fill="#ed5565"/><path d="m354.714844 127.929688-1.757813-7.769532h-24.023437l1.757812 7.769532 5.359375 24.230468h24.023438zm0 0" fill="#da4453"/><path d="m328.074219 8.160156 24.882812 112h-225.761719l24.960938-112c55.917969 0 55.917969 24 87.917969 24s31.921875-24 88-24zm0 0" fill="#656d78"/><path d="m328.074219 8.160156c-9.328125 0-16.988281.703125-23.613281 1.816406l24.480468 110.183594h24.023438zm0 0" fill="#434a54"/><path d="m439.996094 65.128906c4.71875-4.722656 4.71875-12.328125 0-16.96875-4.71875-4.71875-12.238282-4.71875-16.960938 0-4.71875 4.640625-4.71875 12.246094 0 16.96875 4.722656 4.640625 12.242188 4.640625 16.960938 0zm-25.441406-65.128906 73.519531 73.59375-39.597657 39.605469-73.519531-73.597657zm0 0" fill="#a0d468"/><path d="m456.074219 336.078125c13.28125 0 24-10.796875 24-24v24c0 13.203125-10.71875 24-24 24-13.199219 0-24-10.796875-24-24v-24c0 13.210937 10.800781 24 24 24zm0 0" fill="#f6bb42"/><path d="m480.074219 312.078125c0 13.203125-10.71875 24-24 24-13.199219 0-24-10.796875-24-24 0-13.277344 10.800781-24 24-24 13.28125 0 24 10.722656 24 24zm0 0" fill="#ffce54"/><path d="m416.074219 208.078125c8.882812 0 16 7.128906 16 16 0 8.800781-7.117188 16-16 16-8.796875 0-16-7.199219-16-16 0-8.871094 7.203125-16 16-16zm0 0" fill="#ffce54"/><path d="m64.074219 48.078125v24c0 13.203125-10.71875 24-24 24-13.199219 0-24-10.796875-24-24v-24c0 13.203125 10.800781 24 24 24 13.28125 0 24-10.789063 24-24zm0 0" fill="#f6bb42"/><path d="m64.074219 48.078125c0 13.203125-10.71875 24-24 24-13.199219 0-24-10.796875-24-24 0-13.277344 10.800781-24 24-24 13.28125 0 24 10.722656 24 24zm0 0" fill="#ffce54"/><path d="m16.074219 192.078125c8.882812 0 16 7.128906 16 16 0 8.800781-7.117188 16-16 16-8.796875 0-16.0000002-7.199219-16.0000002-16 0-8.871094 7.2031252-16 16.0000002-16zm0 0" fill="#ffce54"/><path d="m65.195312 319.929688c4.640626-4.640626 4.640626-12.25 0-16.96875-4.71875-4.640626-12.320312-4.640626-17.039062 0-4.640625 4.71875-4.640625 12.328124 0 16.96875 4.71875 4.71875 12.320312 4.71875 17.039062 0zm48.082032-25.441407-73.601563 73.511719-39.6015622-39.59375 73.6015622-73.527344zm0 0" fill="#a0d468"/><path d="m240.316406 416.136719c-4.425781 0-8.039062-3.578125-8.039062-8 0-4.425781 3.535156-8 7.949218-8h.089844c4.414063 0 8 3.574219 8 8 0 4.421875-3.585937 8-8 8zm0 0" fill="#ccd1d9"/><path d="m240.316406 464.144531c-4.425781 0-8.039062-3.578125-8.039062-8 0-4.425781 3.535156-8 7.949218-8h.089844c4.414063 0 8 3.574219 8 8 0 4.421875-3.585937 8-8 8zm0 0" fill="#ccd1d9"/><g fill="#8cc152"><path d="m442.804688 45.359375c6.28125 6.167969 6.28125 16.304687 0 22.585937-6.28125 6.167969-16.289063 6.167969-22.570313 0-6.277344-6.28125-6.277344-16.417968 0-22.585937 6.28125-6.28125 16.289063-6.28125 22.570313 0zm0 0"/><path d="m68.027344 300.121094c6.183594 6.285156 6.183594 16.4375 0 22.621094-6.289063 6.289062-16.421875 6.289062-22.710938 0-6.183594-6.183594-6.183594-16.335938 0-22.621094 6.289063-6.183594 16.421875-6.183594 22.710938 0zm0 0"/></g></svg>