<svg height="496pt" viewBox="0 -48 496 496" width="496pt" xmlns="http://www.w3.org/2000/svg"><path d="m144 80h48v-24h-72l-3.441406 24-4.558594 32h24zm8-80c44.160156 0 80 35.839844 80 80 0 16.960938-9.441406 40.960938-21.921875 64-20.15625 37.121094-48.230469 72-58.078125 72s-37.921875-34.878906-58.078125-72c-12.480469-23.039062-21.921875-47.039062-21.921875-64 0-44.160156 35.839844-80 80-80zm0 0" fill="#ed5565"/><path d="m384 176h48v-24h-72l-3.441406 24-4.558594 32h24zm88 0c0 12.398438-5.039062 28.558594-12.640625 45.359375-19.519531 43.121094-55.839844 90.640625-67.359375 90.640625-8.160156 0-28.800781-23.839844-47.039062-53.121094-17.601563-28.078125-32.960938-61.199218-32.960938-82.878906 0-11.359375 2.398438-22.238281 6.71875-32 12.320312-28.238281 40.488281-48 73.28125-48 44.160156 0 80 35.839844 80 80zm0 0" fill="#ed5565"/><path d="m318.640625 144h.078125c-4.320312 9.761719-6.71875 20.640625-6.71875 32 0 21.679688 15.359375 54.800781 32.960938 82.878906-51.761719 29.199219-96.960938 51.839844-96.960938 109.121094h-248l8-32c112-72 210-24.640625 272-192zm0 0" fill="#5d9cec"/><path d="m0 368h248v32h-248zm0 0" fill="#4a89dc"/><path d="m496 396.640625v3.359375h-248v-32h248zm0 0" fill="#8cc152"/><path d="m459.359375 221.359375 36.640625 146.640625h-248c0-57.28125 45.199219-79.921875 96.960938-109.121094 18.238281 29.28125 38.878906 53.121094 47.039062 53.121094 11.519531 0 47.839844-47.519531 67.359375-90.640625zm0 0" fill="#a0d468"/><path d="m210.078125 144h69.921875c-62 167.359375-160 120-272 192l48-192h37.921875c20.15625 37.121094 48.230469 72 58.078125 72s37.921875-34.878906 58.078125-72zm0 0" fill="#a0d468"/><path d="m151.992188 95.992188c-2.046876 0-4.097657-.785157-5.65625-2.34375l-7.992188-7.992188c-3.128906-3.128906-3.128906-8.183594 0-11.3125s8.183594-3.128906 11.3125 0l7.992188 7.992188c3.128906 3.128906 3.128906 8.183593 0 11.3125-1.558594 1.558593-3.609376 2.34375-5.65625 2.34375zm0 0" fill="#434a54"/><path d="m391.992188 191.992188c-2.046876 0-4.097657-.785157-5.65625-2.34375l-7.992188-7.992188c-3.128906-3.128906-3.128906-8.183594 0-11.3125s8.183594-3.128906 11.3125 0l7.992188 7.992188c3.128906 3.128906 3.128906 8.183593 0 11.3125-1.558594 1.558593-3.609376 2.34375-5.65625 2.34375zm0 0" fill="#434a54"/><path d="m384 176-8 32h-24l4.558594-32zm0 0" fill="#656d78"/><path d="m432 152v24h-75.441406l3.441406-24zm0 0" fill="#ccd1d9"/><path d="m144 80-8 32h-24l4.558594-32zm0 0" fill="#656d78"/><path d="m192 56v24h-75.441406l3.441406-24zm0 0" fill="#ccd1d9"/></svg>