<svg id="Capa_1" enable-background="new 0 0 512 512" height="512" viewBox="0 0 512 512" width="512" xmlns="http://www.w3.org/2000/svg"><g><g><g><g fill="#01d0fb"><path d="m333.755 44.487c2.289 0 4.151 1.862 4.151 4.151v35.68h35.679c2.289 0 4.151 1.862 4.151 4.151v52.835h41.678v-136.153c0-2.845-2.306-5.151-5.151-5.151h-318.481c-2.845 0-5.151 2.306-5.151 5.151v39.336z"/><path d="m377.736 369.071v59.611h36.527c2.845 0 5.151-2.306 5.151-5.151v-54.46z"/></g><path d="m129.368 44.487v-39.336c0-2.845 2.306-5.151 5.151-5.151h-38.737c-2.845 0-5.151 2.306-5.151 5.151v39.336z" fill="#01c0fa"/><g fill="#dbf1d0"><path d="m373.585 83.318h-36.679v57.986h41.83v-52.835c0-2.845-2.306-5.151-5.151-5.151z"/><path d="m336.906 411.867c0 .842-.328 1.633-.923 2.228l-55.152 55.152c-.595.595-1.387.923-2.229.923h-228.649v36.68c0 2.845 2.306 5.151 5.151 5.151h318.481c2.845 0 5.151-2.306 5.151-5.151v-137.779h-41.83z"/></g><path d="m88.963 506.849v-36.68h-39.01v36.68c0 2.845 2.306 5.151 5.151 5.151h39.009c-2.844 0-5.15-2.306-5.15-5.151z" fill="#c1e9af"/><path d="m251.604 369.071c-2.437 0-4.419-1.982-4.419-4.419v-218.929c0-2.437 1.982-4.419 4.419-4.419h87.303v-92.666c0-2.845-2.306-5.151-5.151-5.151h-318.482c-2.845 0-5.151 2.306-5.151 5.151v418.38c0 2.845 2.306 5.151 5.151 5.151h263.329c1.366 0 2.676-.543 3.642-1.509l55.152-55.152c.966-.966 1.509-2.276 1.509-3.642v-42.796h-87.302z" fill="#fff3de"/><g><path d="m48.557 467.019v-418.381c0-2.845 2.306-5.151 5.151-5.151h-38.434c-2.845 0-5.151 2.306-5.151 5.151v418.38c0 2.845 2.306 5.151 5.151 5.151h38.434c-2.845.001-5.151-2.306-5.151-5.15z" fill="#ffe5c2"/></g><g><path d="m283.827 414c-1.707 0-3.091 1.384-3.091 3.091v54.6c.554-.253 1.07-.591 1.509-1.03l55.152-55.152c.439-.439.777-.955 1.03-1.509z" fill="#01d0fb"/></g><g><path d="m219.079 121.791h-89.129c-4.142 0-7.5-3.358-7.5-7.5s3.358-7.5 7.5-7.5h89.129c4.142 0 7.5 3.358 7.5 7.5s-3.358 7.5-7.5 7.5z" fill="#f6a96c"/></g><path d="m247.184 164.96h-161.188c-4.142 0-7.5 3.358-7.5 7.5s3.358 7.5 7.5 7.5h161.188z" fill="#f6a96c"/><path d="m247.184 202.854h-161.188c-4.142 0-7.5 3.358-7.5 7.5s3.358 7.5 7.5 7.5h161.188z" fill="#f6a96c"/><g fill="#e8b800"><path d="m247.184 269.771h-161.188c-4.142 0-7.5 3.358-7.5 7.5s3.358 7.5 7.5 7.5h161.188z"/><path d="m247.184 307.666h-161.188c-4.142 0-7.5 3.358-7.5 7.5s3.358 7.5 7.5 7.5h161.188z"/><path d="m247.184 345.56h-161.188c-4.142 0-7.5 3.358-7.5 7.5s3.358 7.5 7.5 7.5h161.188z"/></g><g><path d="m222.567 398.454h-136.571c-4.142 0-7.5-3.358-7.5-7.5s3.358-7.5 7.5-7.5h136.571c4.142 0 7.5 3.358 7.5 7.5s-3.358 7.5-7.5 7.5z" fill="#e8b800"/></g></g><g><g><path d="m494.45 174.752h-240.457l-7.809 1.084v188.816c0 2.993 2.426 5.419 5.419 5.419h244.855c2.993 0 5.419-2.426 5.419-5.419v-188.816z" fill="#dff6fd"/></g><g><path d="m284.023 364.652v-188.816l7.809-1.084h-37.839l-7.809 1.084v188.816c0 2.993 2.426 5.419 5.419 5.419h37.839c-2.993 0-5.419-2.427-5.419-5.419z" fill="#c8effe"/></g><g><g><path d="m496.458 140.304h-244.855c-2.993 0-5.419 2.426-5.419 5.419v30.113h255.693v-30.113c0-2.993-2.426-5.419-5.419-5.419z" fill="#fb2b3a"/></g><g><path d="m289.442 140.304h-37.839c-2.993 0-5.419 2.426-5.419 5.419v30.113h37.839v-30.113c0-2.993 2.426-5.419 5.419-5.419z" fill="#e41f2d"/></g><g><g><circle cx="298.526" cy="218.252" fill="#fff" r="13.769"/><path d="m298.525 239.52c-11.728 0-21.269-9.541-21.269-21.269s9.541-21.269 21.269-21.269 21.269 9.541 21.269 21.269-9.541 21.269-21.269 21.269zm0-27.537c-3.457 0-6.269 2.812-6.269 6.269s2.812 6.269 6.269 6.269 6.269-2.812 6.269-6.269-2.812-6.269-6.269-6.269z" fill="#01d0fb"/></g><g><path d="m463.304 225.751h-127.026c-4.142 0-7.5-3.358-7.5-7.5s3.358-7.5 7.5-7.5h127.026c4.142 0 7.5 3.358 7.5 7.5s-3.358 7.5-7.5 7.5z" fill="#01d0fb"/></g><g><circle cx="298.526" cy="271.327" fill="#fff" r="13.769"/><path d="m298.525 292.596c-11.728 0-21.269-9.541-21.269-21.269s9.541-21.269 21.269-21.269 21.269 9.541 21.269 21.269-9.541 21.269-21.269 21.269zm0-27.537c-3.457 0-6.269 2.812-6.269 6.269s2.812 6.269 6.269 6.269 6.269-2.812 6.269-6.269-2.812-6.269-6.269-6.269z" fill="#01d0fb"/></g><g><path d="m463.304 278.827h-127.026c-4.142 0-7.5-3.358-7.5-7.5s3.358-7.5 7.5-7.5h127.026c4.142 0 7.5 3.358 7.5 7.5s-3.358 7.5-7.5 7.5z" fill="#01d0fb"/></g><g><circle cx="298.526" cy="324.403" fill="#fff" r="13.769"/><path d="m298.525 345.672c-11.728 0-21.269-9.541-21.269-21.269s9.541-21.269 21.269-21.269 21.269 9.541 21.269 21.269-9.541 21.269-21.269 21.269zm0-27.538c-3.457 0-6.269 2.812-6.269 6.269s2.812 6.269 6.269 6.269 6.269-2.813 6.269-6.269-2.812-6.269-6.269-6.269z" fill="#01d0fb"/></g><g><path d="m463.304 331.903h-127.026c-4.142 0-7.5-3.358-7.5-7.5s3.358-7.5 7.5-7.5h127.026c4.142 0 7.5 3.358 7.5 7.5s-3.358 7.5-7.5 7.5z" fill="#01d0fb"/></g></g></g></g></g></g></svg>